<svg>
	
	<linearGradient id="icosaGrad1" gradientUnits="userSpaceOnUse" x1="1.6544" y1="190.5166" x2="198.3457" y2="190.5166">
		<stop offset="0" style="stop-color:#C800AA"/>
		<stop offset="0.5" style="stop-color:#2DB087"/>
		<stop offset="1" style="stop-color:#E9C371"/>
	</linearGradient>
	<linearGradient id="icosaGrad2" gradientUnits="userSpaceOnUse" x1="1.3235" y1="77.1802" x2="198.6767" y2="77.1802">
		<stop offset="0" style="stop-color:#C800AA"/>
		<stop offset="0.5" style="stop-color:#2DB087"/>
		<stop offset="1" style="stop-color:#E9C371"/>
	</linearGradient>
	<linearGradient id="icosaGrad3" gradientUnits="userSpaceOnUse" x1="38.3674" y1="98.2705" x2="100.22" y2="98.2705">
		<stop  offset="0" style="stop-color:#DE2093"/>
		<stop  offset="1" style="stop-color:#2DBC87"/>
	</linearGradient>
	<linearGradient id="icosaGrad4" gradientUnits="userSpaceOnUse" x1="99.3023" y1="133.7295" x2="162.1105" y2="133.7295">
		<stop  offset="0" style="stop-color:#2DB087"/>
		<stop  offset="1" style="stop-color:#E9C371"/>
	</linearGradient>
	<linearGradient id="icosaGrad5" gradientUnits="userSpaceOnUse" x1="1.3786" y1="41.3957" x2="198.6214" y2="41.3957">
		<stop offset="0" style="stop-color:#C800AA"/>
		<stop offset="0.5" style="stop-color:#2DB087"/>
		<stop offset="1" style="stop-color:#E9C371"/>
	</linearGradient>
	<linearGradient id="icosaGrad6" gradientUnits="userSpaceOnUse" x1="0.5514" y1="154.5441" x2="199.4486" y2="154.5441">
		<stop  offset="0" style="stop-color:#C800AA"/>
		<stop  offset="0.5" style="stop-color:#2DB087"/>
		<stop  offset="1" style="stop-color:#E9C371"/>
	</linearGradient>
	<linearGradient id="icosaGrad7" gradientUnits="userSpaceOnUse" x1="0" y1="116" x2="200" y2="116">
		<stop  offset="0" style="stop-color:#C800AA"/>
		<stop  offset="0.5" style="stop-color:#2DB087"/>
		<stop  offset="1" style="stop-color:#E9C371"/>
	</linearGradient>

	<linearGradient id="q1t-g" gradientUnits="userSpaceOnUse" x1="1026.0837" y1="343.6075" x2="1026.0837" y2="122.8932" gradientTransform="matrix(1, 0, 0, 1, -915.639905, -122.752503)">
	  <stop offset="0" style="stop-color:#C22085"/>
	  <stop offset="0.0407" style="stop-color:#B01F79"/>
	  <stop offset="0.1407" style="stop-color:#881E60"/>
	  <stop offset="0.2476" style="stop-color:#651C4A"/>
	  <stop offset="0.3606" style="stop-color:#4A1B38"/>
	  <stop offset="0.482" style="stop-color:#341A2A"/>
	  <stop offset="0.6156" style="stop-color:#251921"/>
	  <stop offset="0.771" style="stop-color:#1C191B"/>
	  <stop offset="1" style="stop-color:#191919"/>
	</linearGradient>

	<linearGradient id="q1b-g" gradientUnits="userSpaceOnUse" x1="298.5532" y1="607.6559" x2="109.8388" y2="607.6559" gradientTransform="matrix(1, 0, 0, 1, -109.364009, -513.606401)">
	  <stop offset="0" style="stop-color:#191919"/>
	  <stop offset="0.229" style="stop-color:#1C191B"/>
	  <stop offset="0.3844" style="stop-color:#251921"/>
	  <stop offset="0.518" style="stop-color:#341A2A"/>
	  <stop offset="0.6394" style="stop-color:#4A1B38"/>
	  <stop offset="0.7524" style="stop-color:#651C4A"/>
	  <stop offset="0.8593" style="stop-color:#881E60"/>
	  <stop offset="0.9593" style="stop-color:#B01F79"/>
	  <stop offset="1" style="stop-color:#C22085"/>
	</linearGradient>

	<linearGradient id="q2t-g" gradientUnits="userSpaceOnUse" x1="190.196" y1="323.6075" x2="190.196" y2="102.8932" gradientTransform="matrix(1, 0, 0, 1, -79.44928, -102.903344)">
	  <stop offset="0" style="stop-color:#2D9687"/>
	  <stop offset="0.0445" style="stop-color:#2B877A"/>
	  <stop offset="0.1618" style="stop-color:#25655C"/>
	  <stop offset="0.2877" style="stop-color:#214A44"/>
	  <stop offset="0.4229" style="stop-color:#1D3431"/>
	  <stop offset="0.5717" style="stop-color:#1B2523"/>
	  <stop offset="0.7449" style="stop-color:#191C1B"/>
	  <stop offset="1" style="stop-color:#191919"/>
	</linearGradient>

	<linearGradient id="q2b-g" gradientUnits="userSpaceOnUse" x1="1027.7266" y1="647.656" x2="1216.4409" y2="647.656" gradientTransform="matrix(1, 0, 0, 1, -1027.757926, -553.111637)">
	    <stop offset="0" style="stop-color:#2D9687"/>
	    <stop offset="0.0445" style="stop-color:#2B877A"/>
	    <stop offset="0.1618" style="stop-color:#25655C"/>
	    <stop offset="0.2877" style="stop-color:#214A44"/>
	    <stop offset="0.4229" style="stop-color:#1D3431"/>
	    <stop offset="0.5717" style="stop-color:#1B2523"/>
	    <stop offset="0.7449" style="stop-color:#191C1B"/>
	    <stop offset="1" style="stop-color:#191919"/>
	</linearGradient>

	<linearGradient id="q3t-g" gradientUnits="userSpaceOnUse" x1="1096.0837" y1="323.6074" x2="1096.0837" y2="102.8932" gradientTransform="matrix(1, 0, 0, 1, -985.700379, -102.899834)">
	  <stop offset="0" style="stop-color:#E9B171"/>
	  <stop offset="0.0185" style="stop-color:#DEA96D"/>
	  <stop offset="0.1074" style="stop-color:#B08859"/>
	  <stop offset="0.2022" style="stop-color:#886A48"/>
	  <stop offset="0.3014" style="stop-color:#655139"/>
	  <stop offset="0.4063" style="stop-color:#4A3C2E"/>
	  <stop offset="0.519" style="stop-color:#342D24"/>
	  <stop offset="0.6431" style="stop-color:#25221E"/>
	  <stop offset="0.7874" style="stop-color:#1C1B1A"/>
	  <stop offset="1" style="stop-color:#191919"/>
	</linearGradient>

	<linearGradient id="q3b-g" gradientUnits="userSpaceOnUse" x1="258.5532" y1="647.6559" x2="69.8389" y2="647.6559" gradientTransform="matrix(1, 0, 0, 1, -69.600021, -553.299988)">
		<stop offset="0" style="stop-color:#191919"/>
		<stop offset="0.2126" style="stop-color:#1C1B1A"/>
		<stop offset="0.3569" style="stop-color:#25221E"/>
		<stop offset="0.481" style="stop-color:#342D24"/>
		<stop offset="0.5937" style="stop-color:#4A3C2E"/>
		<stop offset="0.6986" style="stop-color:#655139"/>
		<stop offset="0.7978" style="stop-color:#886A48"/>
		<stop offset="0.8926" style="stop-color:#B08859"/>
		<stop offset="0.9815" style="stop-color:#DEA96D"/>
		<stop offset="1" style="stop-color:#E9B171"/>
	</linearGradient>

	<linearGradient id="q4t-g" gradientUnits="userSpaceOnUse" x1="190.196" y1="313.6077" x2="190.196" y2="92.8933" gradientTransform="matrix(1, 0, 0, 1, -79.451524, -92.521696)">
		<stop offset="0" style="stop-color:#E2B8AA"/>
		<stop offset="0.0065" style="stop-color:#DEB5A7"/>
		<stop offset="0.0965" style="stop-color:#B09186"/>
		<stop offset="0.1924" style="stop-color:#887169"/>
		<stop offset="0.2928" style="stop-color:#655550"/>
		<stop offset="0.399" style="stop-color:#4A3F3C"/>
		<stop offset="0.5131" style="stop-color:#342E2C"/>
		<stop offset="0.6387" style="stop-color:#252221"/>
		<stop offset="0.7848" style="stop-color:#1C1B1B"/>
		<stop offset="1" style="stop-color:#191919"/>
	</linearGradient>

	<linearGradient id="q4b-g" gradientUnits="userSpaceOnUse" x1="1027.7266" y1="637.656" x2="1216.4409" y2="637.656" gradientTransform="matrix(1, 0, 0, 1.000001, -1027.627079, -543.132333)">
	  <stop offset="0" style="stop-color:#E2B8AA"/>
	  <stop offset="0.0065" style="stop-color:#DEB5A7"/>
	  <stop offset="0.0965" style="stop-color:#B09186"/>
	  <stop offset="0.1924" style="stop-color:#887169"/>
	  <stop offset="0.2928" style="stop-color:#655550"/>
	  <stop offset="0.399" style="stop-color:#4A3F3C"/>
	  <stop offset="0.5131" style="stop-color:#342E2C"/>
	  <stop offset="0.6387" style="stop-color:#252221"/>
	  <stop offset="0.7848" style="stop-color:#1C1B1B"/>
	  <stop offset="1" style="stop-color:#191919"/>
	</linearGradient>


	<symbol id="ipad-outline" viewBox="0 0 805 542">
		<path class="CS-iPadBody" d="M803.9,503c0,20.7-16.8,37.5-37.5,37.5H38.5c-20.7,0-37.5-16.8-37.5-37.5V38c0-20.7,16.8-37.5,37.5-37.5h727.9 c20.7,0,37.5,16.8,37.5,37.5V503z"/>
		<circle cx="763.4" cy="269.4" r="20.3"/>
		<path d="M770.9,273.7c0,2.1-1.7,3.8-3.8,3.8h-7.5c-2.1,0-3.8-1.7-3.8-3.8v-7.5c0-2.1,1.7-3.8,3.8-3.8h7.5 c2.1,0,3.8,1.7,3.8,3.8V273.7z"/>

		<circle cx="42.9" cy="285.8" r="2.9"/>
		<circle cx="42.1" cy="269.6" r="5.8"/>
		<rect  class="st0" />
	</symbol>

	<symbol id="iphone-outline" viewBox="0 0 245 497">
		<path class="CS-iPhone0" d="M244.9,457.3c0,21.9-17.7,39.6-39.6,39.6H41.1c-21.9,0-39.6-17.7-39.6-39.6V41c0-21.9,17.7-39.6,39.6-39.6 h164.3c21.9,0,39.6,17.7,39.6,39.6V457.3z"/>
		<circle class="CS-iPhone1" cx="123.2" cy="16.5" r="3.3"/>
		<path class="CS-iPhone1" d="M143.3,33.1c0,1.5-1.2,2.6-2.6,2.6h-34.3c-1.5,0-2.6-1.2-2.6-2.6l0,0c0-1.5,1.2-2.6,2.6-2.6h34.3 C142.2,30.4,143.3,31.6,143.3,33.1L143.3,33.1z"/>
		<circle class="CS-iPhone1" cx="122.8" cy="464.1" r="18.5"/>
	</symbol>

	<symbol id="mbp-outline" viewBox="0 0 1019.3 595">
		<path d="M94.1,550.2V24.9c0-13.4,11.7-23.6,25.1-23.6h781.1c13.4,0,24,10.2,24,23.6v525.2H94.1z"/>
		<path d="M1.2,550.3c5.7,37.5,24.6,44,54.7,44c34.1,0,874.7,0,907.6,0c30.1,0,48.9-6.5,54.6-44H1.2z"/>
		<path d="M600.7,572.5H419c-8.9,0-16.2-13.1-16.2-22l0,0h213.7l0,0C616.5,559.4,609.6,572.5,600.7,572.5z"/>
	</symbol>

	<symbol id="q1t" x="0" y="0" viewBox="0 0 221 221">
		<path fill="url(#q1t-g)" d="M 191.26 191.047 L 220.76 80.947 L 220.76 80.947 L 220.76 80.947 L 220.76 80.947 L 220.76 80.947 L 220.76 80.947 L 139.96 0.147 L 139.96 0.147 L 139.96 0.147 L 139.96 0.147 L 29.76 29.647 L 29.66 29.547 L 29.66 29.647 L 29.56 29.647 L 29.56 29.847 L 0.06 139.947 L 0.06 139.947 L 0.06 139.947 L 0.06 139.947 L 0.06 139.947 L 0.06 139.947 L 0.06 139.947 L 0.26 140.047 L 75.56 215.447 L 80.96 220.847 L 80.96 220.847 L 80.96 220.847 L 80.96 220.847 L 80.96 220.847 L 80.96 220.847 L 191.16 191.347 L 191.26 191.447 L 191.26 191.347 L 191.36 191.347 L 191.26 191.047 Z M 66.86 176.447 L 84.96 186.047 L 80.56 216.647 L 66.86 176.447 Z M 154.06 44.547 L 135.96 34.947 L 140.36 4.347 L 154.06 44.547 Z M 65.86 173.647 L 49.06 124.347 L 70.06 129.947 L 84.36 183.447 L 65.86 173.647 Z M 154.96 47.347 L 171.76 96.647 L 150.76 91.047 L 136.46 37.547 L 154.96 47.347 Z M 155.16 114.947 L 126.86 143.247 L 71.76 128.447 L 65.76 106.147 L 94.06 77.847 L 149.16 92.647 L 155.16 114.947 Z M 65.16 103.847 L 55.36 67.347 L 91.86 77.147 L 65.16 103.847 Z M 155.76 117.147 L 165.56 153.647 L 129.06 143.847 L 155.76 117.147 Z M 156.76 113.247 L 151.36 93.247 L 171.46 98.647 L 156.76 113.247 Z M 95.66 76.247 L 134.46 37.447 L 148.66 90.347 L 95.66 76.247 Z M 48.16 120.847 L 41.26 85.147 L 53.56 68.247 L 63.56 105.547 L 48.16 120.847 Z M 64.16 107.747 L 69.56 127.847 L 49.46 122.447 L 64.16 107.747 Z M 125.26 144.747 L 86.46 183.547 L 72.36 130.547 L 125.26 144.747 Z M 172.76 100.147 L 179.66 135.847 L 167.36 152.747 L 157.36 115.447 L 172.76 100.147 Z M 157.56 48.647 L 218.36 80.747 L 174.06 96.747 L 157.56 48.647 Z M 93.36 75.647 L 56.06 65.647 L 96.76 34.447 L 132.56 36.447 L 93.36 75.647 Z M 53.96 65.947 L 53.96 65.947 L 53.96 65.947 L 53.76 66.047 L 53.76 66.047 L 40.86 83.747 L 40.86 83.747 L 53.76 66.047 L 41.66 47.847 L 53.96 65.947 L 95.16 34.347 L 95.16 34.347 L 53.96 65.947 Z M 54.16 64.447 L 31.46 30.847 L 93.66 34.247 L 54.16 64.447 Z M 52.66 66.047 L 40.76 82.447 L 31.46 34.047 L 52.66 66.047 Z M 46.86 124.147 L 63.26 172.247 L 2.46 140.047 L 46.86 124.147 Z M 127.46 145.347 L 164.76 155.347 L 124.06 186.547 L 88.26 184.547 L 127.46 145.347 Z M 166.86 155.047 L 166.86 155.047 L 166.86 155.047 L 167.06 154.947 L 167.06 154.947 L 179.96 137.247 L 179.96 137.247 L 167.06 154.947 L 179.16 173.147 L 166.86 155.047 L 125.66 186.647 L 125.66 186.647 L 166.86 155.047 Z M 180.16 138.547 L 189.46 186.947 L 168.26 154.847 L 180.16 138.547 Z M 166.66 156.547 L 189.36 190.147 L 127.16 186.747 L 166.66 156.547 Z M 191.36 186.947 L 181.66 136.447 L 218.36 85.947 L 191.36 186.947 Z M 174.56 98.747 L 218.16 83.047 L 181.26 133.747 L 174.56 98.747 Z M 211.96 73.547 L 215.36 76.947 L 156.56 45.847 L 142.26 3.847 L 211.96 73.547 Z M 134.06 34.447 L 99.26 32.547 L 138.66 2.447 L 134.06 34.447 Z M 35.86 29.047 L 135.36 2.347 L 96.16 32.347 L 35.86 29.047 Z M 29.56 34.047 L 39.26 84.547 L 2.56 135.047 L 29.56 34.047 Z M 46.36 122.247 L 2.76 137.947 L 39.66 87.247 L 46.36 122.247 Z M 5.56 143.947 L 64.26 175.047 L 78.56 217.047 L 68.96 207.447 L 5.56 143.947 Z M 86.86 186.547 L 121.66 188.447 L 82.26 218.547 L 86.86 186.547 Z M 185.06 191.947 L 85.56 218.647 L 124.76 188.647 L 185.06 191.947 Z M 219.16 83.247 L 181.46 135.147 L 181.46 135.147 L 219.16 83.247 L 219.16 83.247 Z M 137.86 1.747 L 97.66 32.447 L 97.66 32.447 L 137.86 1.747 L 137.86 1.747 Z M 1.76 137.747 L 39.46 85.847 L 39.46 85.847 L 1.76 137.747 L 1.76 137.747 Z M 83.06 219.247 L 123.26 188.547 L 123.26 188.547 L 83.06 219.247 L 83.06 219.247 Z"/>
	</symbol>

	<symbol id="q1b" x="0" y="0" viewBox="0 0 189 189">
		<path fill="url(#q1b-g)" d="M 120.037 188.394 L 120.137 188.194 L 156.537 151.794 L 189.137 119.194 L 189.137 119.194 L 189.137 119.194 L 189.137 119.194 L 189.137 119.194 L 189.137 119.194 L 189.137 119.194 L 163.837 24.994 L 163.937 24.994 L 163.937 24.994 L 163.937 24.994 L 163.937 24.994 L 163.837 24.994 L 163.837 24.894 L 163.637 24.894 L 69.637 -0.306 L 69.637 -0.306 L 69.637 -0.306 L 69.637 -0.306 L 35.037 34.294 L 0.437 68.894 L 0.437 68.894 L 0.437 68.894 L 0.437 68.894 L 0.437 68.894 L 0.437 68.894 L 0.437 68.894 L 25.737 163.094 L 25.637 163.094 L 25.737 163.094 L 25.737 163.194 L 25.937 163.194 L 120.037 188.394 L 120.037 188.394 L 120.037 188.394 L 120.037 188.394 L 120.037 188.394 L 120.037 188.394 L 120.037 188.394 Z M 24.337 46.394 L 65.637 5.094 L 39.537 54.394 L 4.237 66.394 L 24.337 46.394 Z M 69.437 2.194 L 82.937 39.694 L 42.237 53.594 L 69.437 2.194 Z M 120.237 185.994 L 106.737 148.494 L 147.437 134.594 L 120.237 185.994 Z M 66.737 109.094 L 66.737 109.094 L 90.037 132.394 L 90.037 132.394 L 66.737 109.094 Z M 88.837 132.694 L 58.137 140.894 L 66.437 110.194 L 88.837 132.694 Z M 100.837 55.394 L 131.537 47.194 L 123.237 77.894 L 100.837 55.394 Z M 67.037 107.994 L 79.637 61.094 L 98.537 55.994 L 122.637 80.094 L 110.037 126.994 L 91.137 132.094 L 67.037 107.994 Z M 112.237 126.394 L 124.237 81.594 L 157.037 114.394 L 112.237 126.394 Z M 99.137 53.794 L 86.237 40.894 L 116.437 35.094 L 130.637 45.394 L 99.137 53.794 Z M 96.937 54.394 L 80.237 58.894 L 84.737 42.194 L 96.937 54.394 Z M 78.037 59.394 L 32.637 71.594 L 40.837 56.094 L 82.737 41.794 L 78.037 59.394 Z M 77.437 61.694 L 65.437 106.494 L 32.637 73.694 L 77.437 61.694 Z M 90.537 134.294 L 103.437 147.194 L 73.237 152.994 L 59.037 142.694 L 90.537 134.294 Z M 109.437 129.294 L 104.937 145.994 L 92.737 133.794 L 109.437 129.294 Z M 111.637 128.694 L 157.037 116.494 L 148.837 131.994 L 106.937 146.294 L 111.637 128.694 Z M 159.437 115.994 L 184.837 119.594 L 151.437 130.994 L 159.437 115.994 Z M 158.037 112.694 L 124.837 79.394 L 133.337 47.794 L 159.837 82.394 L 158.037 112.694 Z M 132.937 45.794 L 132.937 45.794 L 132.937 45.794 L 132.837 45.694 L 132.837 45.694 L 117.837 34.794 L 117.837 34.794 L 132.837 45.694 L 148.437 35.394 L 132.937 45.794 L 159.837 80.894 L 159.837 80.894 L 132.937 45.794 Z M 134.337 45.994 L 162.737 26.794 L 159.837 79.294 L 134.337 45.994 Z M 132.837 44.394 L 119.237 34.494 L 159.637 26.694 L 132.837 44.394 Z M 41.537 54.794 L 41.537 54.794 L 84.137 40.294 L 41.537 54.794 Z M 30.137 72.094 L 4.737 68.494 L 38.137 57.094 L 30.137 72.094 Z M 65.137 107.594 L 65.137 107.594 L 30.737 73.194 L 65.137 107.594 Z M 31.637 75.394 L 64.837 108.594 L 56.337 140.194 L 29.837 105.594 L 31.637 75.394 Z M 56.737 142.294 L 56.737 142.294 L 56.737 142.294 L 56.837 142.394 L 56.837 142.394 L 71.837 153.294 L 71.837 153.294 L 56.837 142.394 L 41.237 152.694 L 56.737 142.294 L 29.837 107.194 L 29.837 107.194 L 56.737 142.294 Z M 55.237 142.094 L 26.837 161.294 L 29.737 108.794 L 55.237 142.094 Z M 56.837 143.694 L 70.437 153.594 L 30.037 161.394 L 56.837 143.694 Z M 91.637 133.994 L 91.637 133.994 L 105.437 147.794 L 105.437 147.794 L 105.437 147.794 L 105.437 147.794 L 105.437 147.794 L 148.037 133.294 L 148.037 133.294 L 105.437 147.794 L 105.437 147.794 L 105.437 147.794 L 91.637 133.994 Z M 150.137 133.694 L 185.437 121.694 L 124.037 182.994 L 150.137 133.694 Z M 150.837 132.394 L 150.837 132.394 L 187.037 119.994 L 187.037 119.994 L 150.837 132.394 Z M 159.937 114.094 L 161.537 84.894 L 186.837 117.994 L 159.937 114.094 Z M 186.937 114.694 L 161.737 81.794 L 164.537 31.194 L 186.937 114.694 Z M 159.537 24.794 L 117.037 32.894 L 74.537 1.994 L 159.537 24.794 Z M 84.837 39.094 L 71.637 2.394 L 114.337 33.494 L 84.837 39.094 Z M 38.837 55.694 L 38.837 55.694 L 2.637 68.094 L 2.637 68.094 L 38.837 55.694 Z M 29.737 73.994 L 28.137 103.194 L 2.837 70.094 L 29.737 73.994 Z M 2.737 73.394 L 27.937 106.294 L 25.137 156.894 L 2.737 73.394 Z M 30.137 163.294 L 72.637 155.194 L 115.137 186.094 L 30.137 163.294 Z M 104.837 148.994 L 118.037 185.694 L 75.337 154.594 L 104.837 148.994 Z M 187.637 117.194 L 161.637 83.294 L 161.637 83.294 L 187.637 117.194 L 187.637 117.194 Z M 71.837 1.294 L 115.737 33.194 L 115.737 33.194 L 71.837 1.294 L 71.837 1.294 Z M 2.037 70.894 L 27.937 104.794 L 27.937 104.794 L 2.037 70.894 L 2.037 70.894 Z M 117.837 186.794 L 73.937 154.894 L 73.937 154.894 L 117.837 186.794 L 117.837 186.794 Z"/>
	</symbol>


	<symbol id="q2t" x="0" y="0" viewBox="0 0 221 221">
		<path fill="url(#q2t-g)" d="M 221.051 139.897 L 221.051 139.897 L 221.051 139.897 L 221.051 139.897 L 221.051 139.897 L 221.051 139.897 L 191.651 30.297 L 191.551 29.797 L 191.551 29.597 L 191.551 29.597 L 191.551 29.597 L 191.551 29.597 L 191.451 29.597 L 191.451 29.497 L 191.451 29.497 L 191.351 29.597 L 188.551 28.797 L 81.151 -0.003 L 81.151 -0.003 L 81.151 -0.003 L 81.151 -0.003 L 0.351 80.797 L 0.351 80.797 L 0.351 80.797 L 0.351 80.797 L 0.351 80.797 L 0.351 80.797 L 29.851 190.897 L 29.851 191.097 L 29.951 191.097 L 29.951 191.197 L 30.051 191.097 L 140.251 220.597 L 140.251 220.597 L 140.251 220.597 L 140.251 220.597 L 140.251 220.597 L 140.251 220.597 L 140.251 220.597 L 140.251 220.597 L 140.251 220.597 L 220.851 139.897 L 221.051 139.897 L 221.051 139.897 Z M 66.251 47.197 L 84.751 37.397 L 70.451 90.897 L 49.451 96.497 L 66.251 47.197 Z M 127.151 77.597 L 155.451 105.897 L 149.451 128.197 L 94.351 143.097 L 66.051 114.797 L 72.051 92.497 L 127.151 77.597 Z M 157.051 107.597 L 171.751 122.297 L 151.651 127.697 L 157.051 107.597 Z M 129.351 76.997 L 165.851 67.197 L 156.051 103.697 L 129.351 76.997 Z M 92.151 143.697 L 55.651 153.497 L 65.451 116.997 L 92.151 143.697 Z M 157.651 105.297 L 167.651 67.997 L 179.951 84.897 L 173.051 120.597 L 157.651 105.297 Z M 125.551 76.097 L 72.651 90.297 L 86.851 37.397 L 125.551 76.097 Z M 69.851 93.097 L 64.451 113.197 L 49.751 98.497 L 69.851 93.097 Z M 63.851 115.397 L 53.851 152.697 L 41.551 135.697 L 48.451 99.997 L 63.851 115.397 Z M 95.951 144.597 L 148.851 130.397 L 134.651 183.297 L 95.951 144.597 Z M 151.051 129.797 L 172.051 124.197 L 155.251 173.497 L 136.751 183.297 L 151.051 129.797 Z M 156.551 172.897 L 173.651 122.797 L 173.651 122.797 L 173.651 122.797 L 156.551 172.897 L 156.551 172.897 Z M 167.251 65.797 L 179.451 47.697 L 167.351 65.897 L 180.251 83.597 L 180.251 83.597 L 167.351 65.897 L 167.351 65.897 L 167.251 65.797 L 167.251 65.797 L 167.251 65.797 L 125.951 34.197 L 125.951 34.197 L 167.251 65.797 Z M 127.451 34.097 L 189.651 30.697 L 166.951 64.297 L 127.451 34.097 Z M 189.851 33.797 L 180.551 82.197 L 168.551 65.897 L 189.851 33.797 Z M 165.151 65.497 L 127.851 75.497 L 88.551 36.297 L 124.351 34.297 L 165.151 65.497 Z M 47.251 96.697 L 2.951 80.697 L 63.751 48.597 L 47.251 96.697 Z M 54.251 154.897 L 42.051 172.997 L 54.151 154.797 L 41.251 137.097 L 41.251 137.097 L 54.151 154.797 L 54.151 154.797 L 54.251 154.897 L 54.251 154.897 L 54.251 154.897 L 95.551 186.497 L 95.551 186.497 L 54.251 154.897 Z M 94.051 186.597 L 31.851 189.997 L 54.551 156.397 L 94.051 186.597 Z M 31.651 186.897 L 40.951 138.497 L 52.851 154.897 L 31.651 186.897 Z M 56.351 155.197 L 93.651 145.197 L 132.851 184.397 L 97.051 186.397 L 56.351 155.197 Z M 174.251 123.997 L 218.651 139.997 L 157.851 172.197 L 174.251 123.997 Z M 174.851 122.097 L 181.551 87.097 L 218.451 137.797 L 174.851 122.097 Z M 218.751 134.897 L 182.051 84.397 L 191.751 33.897 L 218.751 134.897 Z M 185.351 28.897 L 125.051 32.197 L 85.851 2.197 L 185.351 28.897 Z M 87.151 34.297 L 82.551 2.197 L 121.951 32.297 L 87.151 34.297 Z M 85.251 34.797 L 67.151 44.397 L 80.851 4.297 L 85.251 34.797 Z M 78.851 3.697 L 64.551 45.697 L 5.751 76.797 L 54.851 27.697 L 78.851 3.697 Z M 46.651 98.597 L 39.951 133.597 L 3.051 82.897 L 46.651 98.597 Z M 2.751 85.797 L 39.451 136.297 L 29.751 186.797 L 2.751 85.797 Z M 36.151 191.797 L 96.451 188.497 L 135.651 218.497 L 36.151 191.797 Z M 134.351 186.397 L 138.951 218.497 L 99.551 188.297 L 134.351 186.397 Z M 136.251 185.897 L 154.351 176.297 L 140.651 216.397 L 136.251 185.897 Z M 155.651 175.597 L 155.651 175.597 L 140.951 218.597 L 140.951 218.597 L 155.651 175.597 Z M 142.551 216.997 L 156.851 174.997 L 215.551 143.897 L 142.551 216.997 Z M 219.451 137.597 L 181.751 85.797 L 181.751 85.797 L 219.451 137.597 L 219.451 137.597 Z M 83.351 1.597 L 123.551 32.297 L 123.551 32.297 L 83.351 1.597 L 83.351 1.597 Z M 2.051 83.097 L 39.751 134.897 L 39.751 134.897 L 2.051 83.097 L 2.051 83.097 Z M 138.151 219.097 L 97.951 188.397 L 97.951 188.397 L 138.151 219.097 L 138.151 219.097 Z"/>
	</symbol>
	<symbol id="q2b" x="0" y="0" viewBox="0 0 189 189">
  		<path fill="url(#q2b-g)" d="M 163.442 163.589 L 188.742 69.389 L 188.742 69.389 L 188.742 69.389 L 188.742 69.389 L 188.742 69.389 L 188.742 69.389 L 154.142 34.789 L 119.542 0.189 L 119.542 0.189 L 119.542 0.189 L 119.542 0.189 L 119.542 0.189 L 119.542 0.189 L 25.442 25.389 L 25.242 25.389 L 25.242 25.489 L 25.142 25.489 L 25.242 25.489 L -0.058 119.689 L -0.058 119.689 L -0.058 119.689 L -0.058 119.689 L -0.058 119.689 L -0.058 119.689 L 1.942 121.689 L 69.042 188.689 L 69.142 188.889 L 69.142 188.889 L 69.142 188.889 L 69.142 188.889 L 69.142 188.889 L 69.142 188.889 L 69.142 188.889 L 163.242 163.689 L 163.442 163.689 L 163.442 163.589 L 163.442 163.589 L 163.442 163.589 Z M 41.742 135.089 L 82.442 148.989 L 68.942 186.489 L 41.742 135.089 Z M 119.742 2.689 L 146.942 53.989 L 106.242 40.089 L 119.742 2.689 Z M 132.442 142.789 L 147.942 153.189 L 132.342 142.889 L 117.342 153.789 L 117.342 153.789 L 132.342 142.889 L 132.342 142.889 L 132.442 142.789 L 132.442 142.789 L 132.442 142.789 L 159.342 107.689 L 159.342 107.689 L 132.442 142.789 Z M 159.342 109.289 L 162.242 161.789 L 133.842 142.589 L 159.342 109.289 Z M 40.342 132.489 L 32.142 116.989 L 77.542 129.189 L 82.242 146.789 L 40.342 132.489 Z M 148.242 56.589 L 156.442 72.089 L 111.042 59.889 L 106.342 42.289 L 148.242 56.589 Z M 122.742 110.689 L 131.042 141.389 L 100.342 133.189 L 122.742 110.689 Z M 98.042 132.589 L 79.142 127.489 L 66.542 80.589 L 90.642 56.489 L 109.542 61.589 L 122.142 108.489 L 98.042 132.589 Z M 65.942 78.389 L 57.642 47.689 L 88.342 55.889 L 65.942 78.389 Z M 123.742 106.989 L 111.742 62.189 L 156.542 74.189 L 123.742 106.989 Z M 92.242 54.889 L 104.442 42.689 L 108.942 59.389 L 92.242 54.889 Z M 89.942 54.289 L 58.442 45.889 L 72.642 35.589 L 102.842 41.389 L 89.942 54.289 Z M 64.942 82.189 L 76.942 126.989 L 32.142 114.989 L 64.942 82.189 Z M 96.442 134.189 L 84.242 146.389 L 79.742 129.689 L 96.442 134.189 Z M 98.642 134.789 L 130.142 143.189 L 115.942 153.489 L 85.742 147.689 L 98.642 134.789 Z M 132.742 140.689 L 124.242 109.089 L 157.442 75.889 L 159.142 106.089 L 132.742 140.689 Z M 151.042 57.489 L 184.442 68.889 L 159.042 72.489 L 151.042 57.489 Z M 56.242 46.289 L 40.742 35.889 L 56.342 46.189 L 71.342 35.289 L 71.342 35.289 L 56.342 46.189 L 56.342 46.189 L 56.242 46.289 L 56.242 46.289 L 56.242 46.289 L 29.342 81.389 L 29.342 81.389 L 56.242 46.289 Z M 29.242 79.789 L 26.342 27.289 L 54.742 46.489 L 29.242 79.789 Z M 29.542 27.189 L 69.942 34.989 L 56.342 44.889 L 29.542 27.189 Z M 55.942 48.389 L 64.442 79.989 L 31.242 113.189 L 29.542 82.989 L 55.942 48.389 Z M 37.642 131.589 L 4.242 120.189 L 29.642 116.589 L 37.642 131.589 Z M 132.342 144.189 L 159.042 161.889 L 118.642 154.089 L 132.342 144.189 Z M 164.042 157.389 L 161.242 106.789 L 186.442 73.889 L 164.042 157.389 Z M 159.442 74.489 L 186.342 70.589 L 161.042 103.689 L 159.442 74.489 Z M 184.942 66.989 L 149.642 54.989 L 123.542 5.689 L 164.842 46.989 L 184.942 66.989 Z M 104.242 39.589 L 74.742 33.989 L 117.442 2.889 L 104.242 39.589 Z M 29.642 25.289 L 114.642 2.489 L 72.142 33.389 L 29.642 25.289 Z M 24.642 31.689 L 27.442 82.289 L 2.242 115.189 L 24.642 31.689 Z M 29.142 114.589 L 2.242 118.489 L 27.542 85.389 L 29.142 114.589 Z M 3.742 122.089 L 39.042 134.089 L 65.142 183.389 L 11.242 129.589 L 3.742 122.089 Z M 84.342 149.489 L 113.842 155.089 L 71.142 186.189 L 84.342 149.489 Z M 159.042 163.789 L 74.042 186.589 L 116.542 155.689 L 159.042 163.789 Z M 187.042 71.389 L 161.142 105.289 L 161.142 105.289 L 187.042 71.389 L 187.042 71.389 Z M 117.342 1.789 L 73.542 33.689 L 73.542 33.689 L 117.342 1.789 L 117.342 1.789 Z M 1.542 117.689 L 27.442 83.789 L 27.442 83.789 L 1.542 117.689 L 1.542 117.689 Z M 71.342 187.289 L 115.142 155.389 L 115.142 155.389 L 71.342 187.289 L 71.342 187.289 Z"/>
	</symbol>


	<symbol id="q3t" x="0" y="0" viewBox="0 0 221 221">
		<path fill="url(#q3t-g)" d="M 191.2 190.9 L 220.7 80.8 L 220.7 80.8 L 220.7 80.8 L 220.7 80.8 L 220.7 80.8 L 220.7 80.8 L 139.9 0 L 139.9 0 L 139.9 0 L 139.9 0 L 29.7 29.5 L 29.6 29.4 L 29.6 29.5 L 29.5 29.5 L 29.5 29.7 L 0 139.8 L 0 139.8 L 0 139.8 L 0 139.8 L 0 139.8 L 0 139.8 L 0 139.8 L 0.2 139.9 L 26.1 165.8 L 80.8 220.6 L 80.8 220.6 L 80.8 220.6 L 80.8 220.6 L 80.8 220.6 L 80.8 220.6 L 191 191.1 L 191.1 191.2 L 191.1 191.1 L 191.2 191.1 L 191.2 190.9 Z M 66.8 176.3 L 84.9 185.9 L 80.5 216.5 L 66.8 176.3 Z M 154 44.4 L 135.9 34.8 L 140.3 4.2 L 154 44.4 Z M 65.8 173.5 L 49 124.2 L 70 129.8 L 84.3 183.3 L 65.8 173.5 Z M 154.9 47.2 L 171.7 96.5 L 150.7 90.9 L 136.4 37.4 L 154.9 47.2 Z M 155.1 114.8 L 126.8 143.1 L 71.7 128.3 L 65.7 106 L 94 77.7 L 149.1 92.5 L 155.1 114.8 Z M 65.1 103.7 L 55.3 67.2 L 91.8 77 L 65.1 103.7 Z M 155.7 117 L 165.5 153.5 L 129 143.7 L 155.7 117 Z M 156.7 113.1 L 151.3 93.1 L 171.4 98.5 L 156.7 113.1 Z M 95.6 76.1 L 134.4 37.3 L 148.6 90.2 L 95.6 76.1 Z M 48.1 120.7 L 41.2 85 L 53.5 68.1 L 63.5 105.4 L 48.1 120.7 Z M 64.1 107.6 L 69.5 127.7 L 49.4 122.3 L 64.1 107.6 Z M 125.2 144.6 L 86.4 183.4 L 72.2 130.5 L 125.2 144.6 Z M 172.7 100 L 179.6 135.7 L 167.3 152.6 L 157.3 115.3 L 172.7 100 Z M 157.5 48.5 L 218.3 80.6 L 174 96.6 L 157.5 48.5 Z M 93.3 75.5 L 56 65.5 L 96.7 34.3 L 132.5 36.3 L 93.3 75.5 Z M 53.9 65.8 L 53.9 65.8 L 53.9 65.8 L 53.7 65.9 L 53.7 65.9 L 40.8 83.6 L 40.8 83.6 L 53.7 65.9 L 41.6 47.7 L 53.9 65.8 L 95.1 34.2 L 95.1 34.2 L 53.9 65.8 Z M 54.1 64.3 L 31.4 30.7 L 93.6 34.1 L 54.1 64.3 Z M 52.6 65.9 L 40.7 82.3 L 31.4 33.9 L 52.6 65.9 Z M 46.8 124 L 63.2 172.1 L 2.4 139.9 L 46.8 124 Z M 127.4 145.2 L 164.7 155.2 L 124 186.4 L 88.2 184.4 L 127.4 145.2 Z M 166.8 154.9 L 166.8 154.9 L 166.8 154.9 L 167 154.8 L 167 154.8 L 179.9 137.1 L 179.9 137.1 L 167 154.8 L 179.1 173 L 166.8 154.9 L 125.6 186.5 L 125.6 186.5 L 166.8 154.9 Z M 180.1 138.4 L 189.4 186.8 L 168.2 154.7 L 180.1 138.4 Z M 166.6 156.4 L 189.3 190 L 127.1 186.6 L 166.6 156.4 Z M 191.3 186.8 L 181.6 136.3 L 218.3 85.8 L 191.3 186.8 Z M 174.5 98.6 L 218.1 82.9 L 181.2 133.6 L 174.5 98.6 Z M 156.6 45.8 L 142.3 3.8 L 215.4 76.9 L 156.6 45.8 Z M 134 34.3 L 99.2 32.4 L 138.6 2.3 L 134 34.3 Z M 35.8 28.9 L 135.3 2.2 L 96.1 32.2 L 35.8 28.9 Z M 29.5 33.9 L 39.2 84.4 L 2.5 134.9 L 29.5 33.9 Z M 46.3 122.1 L 2.7 137.8 L 39.6 87.1 L 46.3 122.1 Z M 64.2 174.9 L 78.5 216.9 L 5.4 143.8 L 64.2 174.9 Z M 86.8 186.4 L 121.6 188.3 L 82.2 218.4 L 86.8 186.4 Z M 185 191.8 L 85.5 218.5 L 124.7 188.5 L 185 191.8 Z M 219.1 83.1 L 181.4 135 L 181.4 135 L 219.1 83.1 L 219.1 83.1 Z M 137.8 1.6 L 97.6 32.3 L 97.6 32.3 L 137.8 1.6 L 137.8 1.6 Z M 1.7 137.6 L 39.4 85.7 L 39.4 85.7 L 1.7 137.6 L 1.7 137.6 Z M 83 219.1 L 123.2 188.4 L 123.2 188.4 L 83 219.1 L 83 219.1 Z"/>
	</symbol>
	<symbol id="q3b" x="0" y="0" viewBox="0 0 189 189">
  		<path fill="url(#q3b-g)" d="M 188 120.6 L 189 119.6 L 189 119.6 L 189 119.6 L 189 119.6 L 189 119.6 L 189 119.6 L 163.7 25.4 L 163.8 25.4 L 163.7 25.4 L 163.7 25.3 L 163.5 25.3 L 69.4 0 L 69.4 0 L 69.4 0 L 69.4 0 L 69.4 0 L 69.4 0 L 17.6 51.8 L 0.3 69.1 L 0.3 69.1 L 0.3 69.1 L 0.3 69.1 L 0.3 69.1 L 0.3 69.1 L 25.6 163.3 L 25.5 163.3 L 25.6 163.3 L 25.6 163.4 L 25.8 163.4 L 119.9 188.6 L 119.9 188.6 L 119.9 188.6 L 119.9 188.6 L 119.9 188.6 L 119.9 188.6 L 119.9 188.6 L 120 188.4 L 188 120.6 Z M 69.2 2.5 L 82.7 40 L 42 53.9 L 69.2 2.5 Z M 120 186.3 L 106.5 148.8 L 147.2 134.9 L 120 186.3 Z M 40.7 56.4 L 82.6 42.1 L 77.9 59.7 L 32.5 71.9 L 40.7 56.4 Z M 109.8 127.3 L 90.9 132.4 L 66.8 108.3 L 79.4 61.4 L 98.3 56.3 L 122.4 80.4 L 109.8 127.3 Z M 100.6 55.7 L 131.3 47.5 L 123 78.2 L 100.6 55.7 Z M 88.6 133 L 57.9 141.2 L 66.2 110.5 L 88.6 133 Z M 112 126.7 L 124 81.9 L 156.8 114.7 L 112 126.7 Z M 98.9 54.1 L 86 41.2 L 116.2 35.4 L 130.4 45.7 L 98.9 54.1 Z M 96.7 54.7 L 80 59.2 L 84.5 42.5 L 96.7 54.7 Z M 77.2 62 L 65.2 106.8 L 32.4 74 L 77.2 62 Z M 90.3 134.6 L 103.2 147.5 L 73 153.3 L 58.8 143 L 90.3 134.6 Z M 92.5 134 L 109.2 129.5 L 104.7 146.2 L 92.5 134 Z M 111.4 129 L 156.8 116.8 L 148.6 132.3 L 106.7 146.6 L 111.4 129 Z M 159.2 116.3 L 184.6 119.9 L 151.2 131.3 L 159.2 116.3 Z M 157.8 113 L 124.6 79.7 L 133.1 48.1 L 159.6 82.7 L 157.8 113 Z M 132.7 46.1 L 132.7 46.1 L 132.7 46.1 L 132.6 46 L 132.6 46 L 117.6 35.1 L 117.6 35.1 L 132.6 46 L 148.2 35.7 L 132.7 46.1 L 159.6 81.2 L 159.6 81.2 L 132.7 46.1 Z M 134.1 46.3 L 162.5 27.1 L 159.6 79.6 L 134.1 46.3 Z M 132.6 44.7 L 119 34.8 L 159.4 27 L 132.6 44.7 Z M 29.9 72.4 L 4.5 68.7 L 37.9 57.3 L 29.9 72.4 Z M 31.4 75.7 L 64.6 108.9 L 56.1 140.5 L 29.6 105.9 L 31.4 75.7 Z M 56.5 142.6 L 56.5 142.6 L 56.5 142.6 L 56.6 142.7 L 56.6 142.7 L 71.6 153.6 L 71.6 153.6 L 56.6 142.7 L 41 153 L 56.5 142.6 L 29.6 107.5 L 29.6 107.5 L 56.5 142.6 Z M 55 142.4 L 26.6 161.6 L 29.5 109.1 L 55 142.4 Z M 56.6 144 L 70.2 153.9 L 29.8 161.7 L 56.6 144 Z M 123.8 183.3 L 149.9 134 L 185.2 122 L 180 127.2 L 123.8 183.3 Z M 159.7 114.4 L 161.3 85.2 L 186.6 118.3 L 159.7 114.4 Z M 186.7 115 L 161.5 82.1 L 164.3 31.5 L 186.7 115 Z M 159.3 25.1 L 116.8 33.2 L 74.3 2.3 L 159.3 25.1 Z M 84.6 39.4 L 71.4 2.7 L 114.1 33.8 L 84.6 39.4 Z M 39.3 54.8 L 4 66.8 L 65.4 5.4 L 39.3 54.8 Z M 29.5 74.3 L 27.9 103.5 L 2.6 70.4 L 29.5 74.3 Z M 2.5 73.7 L 27.7 106.6 L 24.9 157.2 L 2.5 73.7 Z M 29.9 163.6 L 72.4 155.5 L 114.9 186.4 L 29.9 163.6 Z M 104.6 149.3 L 117.8 186 L 75.1 154.9 L 104.6 149.3 Z M 187.4 117.5 L 161.4 83.6 L 161.4 83.6 L 187.4 117.5 L 187.4 117.5 Z M 71.6 1.6 L 115.5 33.5 L 115.5 33.5 L 71.6 1.6 L 71.6 1.6 Z M 1.8 71.2 L 27.7 105.1 L 27.7 105.1 L 1.8 71.2 L 1.8 71.2 Z M 117.6 187.1 L 73.7 155.2 L 73.7 155.2 L 117.6 187.1 L 117.6 187.1 Z"/>
	</symbol>


	<symbol id="q4t" x="0" y="0" viewBox="0 0 221 221">
  		<path fill="url(#q4t-g)" d="M 221.049 140.279 L 221.049 140.279 L 221.049 140.279 L 221.049 140.279 L 221.049 140.279 L 221.049 140.279 L 191.549 30.179 L 191.549 29.979 L 191.449 29.979 L 191.449 29.879 L 191.349 29.979 L 81.249 0.379 L 81.249 0.379 L 81.249 0.379 L 81.249 0.379 L 81.249 0.379 L 81.249 0.379 L 0.449 81.179 L 0.449 81.179 L 0.449 81.179 L 0.449 81.179 L 29.949 191.279 L 29.949 191.479 L 30.049 191.479 L 30.049 191.579 L 30.149 191.479 L 140.349 220.979 L 140.349 220.979 L 140.349 220.979 L 140.349 220.979 L 140.349 220.979 L 140.349 220.979 L 140.349 220.979 L 220.949 140.279 L 221.049 140.279 L 221.049 140.279 Z M 80.849 4.679 L 85.249 35.279 L 67.149 44.879 L 80.849 4.679 Z M 66.249 47.579 L 84.749 37.779 L 70.449 91.279 L 49.449 96.879 L 66.249 47.579 Z M 127.149 77.979 L 155.449 106.279 L 149.449 128.579 L 94.349 143.479 L 66.049 115.179 L 72.049 92.879 L 127.149 77.979 Z M 157.049 107.979 L 171.749 122.679 L 151.649 128.079 L 157.049 107.979 Z M 129.349 77.379 L 165.849 67.579 L 156.049 104.079 L 129.349 77.379 Z M 92.149 144.079 L 55.649 153.879 L 65.449 117.379 L 92.149 144.079 Z M 157.649 105.679 L 167.649 68.379 L 179.949 85.279 L 173.049 120.979 L 157.649 105.679 Z M 125.549 76.479 L 72.649 90.679 L 86.849 37.779 L 125.549 76.479 Z M 69.849 93.479 L 64.449 113.579 L 49.749 98.879 L 69.849 93.479 Z M 63.849 115.779 L 53.849 153.079 L 41.549 136.079 L 48.449 100.379 L 63.849 115.779 Z M 95.949 144.979 L 148.849 130.779 L 134.649 183.679 L 95.949 144.979 Z M 151.049 130.179 L 172.049 124.579 L 155.249 173.879 L 136.749 183.679 L 151.049 130.179 Z M 156.549 173.279 L 173.649 123.179 L 173.649 123.179 L 173.649 123.179 L 156.549 173.279 L 156.549 173.279 Z M 167.249 66.179 L 179.449 48.079 L 167.349 66.279 L 180.249 83.979 L 180.249 83.979 L 167.349 66.279 L 167.349 66.279 L 167.249 66.179 L 167.249 66.179 L 167.249 66.179 L 125.949 34.579 L 125.949 34.579 L 167.249 66.179 Z M 127.449 34.479 L 189.649 31.079 L 166.949 64.679 L 127.449 34.479 Z M 189.849 34.179 L 180.549 82.579 L 168.549 66.279 L 189.849 34.179 Z M 165.149 65.879 L 127.849 75.879 L 88.549 36.679 L 124.349 34.679 L 165.149 65.879 Z M 47.249 97.079 L 2.949 81.079 L 63.749 48.979 L 47.249 97.079 Z M 54.249 155.279 L 42.049 173.379 L 54.149 155.179 L 41.249 137.479 L 41.249 137.479 L 54.149 155.179 L 54.149 155.179 L 54.249 155.279 L 54.249 155.279 L 54.249 155.279 L 95.549 186.879 L 95.549 186.879 L 54.249 155.279 Z M 94.049 186.979 L 31.849 190.379 L 54.549 156.779 L 94.049 186.979 Z M 31.649 187.279 L 40.949 138.879 L 52.849 155.279 L 31.649 187.279 Z M 56.349 155.579 L 93.649 145.579 L 132.849 184.779 L 97.049 186.779 L 56.349 155.579 Z M 174.249 124.379 L 218.649 140.379 L 157.849 172.579 L 174.249 124.379 Z M 174.849 122.479 L 181.549 87.479 L 218.449 138.179 L 174.849 122.479 Z M 218.749 135.279 L 182.049 84.779 L 191.749 34.279 L 218.749 135.279 Z M 185.349 29.279 L 125.049 32.579 L 85.849 2.579 L 185.349 29.279 Z M 87.149 34.679 L 82.549 2.679 L 121.949 32.779 L 87.149 34.679 Z M 78.849 4.079 L 64.549 46.079 L 5.749 77.179 L 78.849 4.079 Z M 46.649 98.979 L 39.949 133.979 L 3.049 83.279 L 46.649 98.979 Z M 2.749 86.179 L 39.449 136.679 L 29.749 187.179 L 2.749 86.179 Z M 36.149 192.179 L 96.449 188.879 L 135.649 218.879 L 36.149 192.179 Z M 134.349 186.779 L 138.949 218.879 L 99.549 188.679 L 134.349 186.779 Z M 136.249 186.279 L 154.349 176.679 L 140.649 216.779 L 136.249 186.279 Z M 155.649 175.979 L 155.649 175.979 L 140.949 218.979 L 140.949 218.979 L 155.649 175.979 Z M 194.149 165.679 L 142.549 217.379 L 156.849 175.379 L 215.549 144.279 L 194.149 165.679 Z M 219.449 137.979 L 181.749 86.179 L 181.749 86.179 L 219.449 137.979 L 219.449 137.979 Z M 83.349 1.979 L 123.549 32.679 L 123.549 32.679 L 83.349 1.979 L 83.349 1.979 Z M 2.049 83.479 L 39.749 135.279 L 39.749 135.279 L 2.049 83.479 L 2.049 83.479 Z M 138.149 219.479 L 97.949 188.779 L 97.949 188.779 L 138.149 219.479 L 138.149 219.479 Z"/>
	</symbol>
	<symbol id="q4b" x="0" y="0" viewBox="0 0 189 189">
		<path fill="url(#q4b-g)" d="M 163.572 163.569 L 188.872 69.369 L 188.872 69.369 L 188.872 69.369 L 188.872 69.369 L 188.872 69.369 L 188.872 69.369 L 119.773 0.269 L 119.773 0.269 L 119.773 0.269 L 119.773 0.269 L 25.673 25.468 L 25.472 25.468 L 25.472 25.569 L 25.372 25.569 L 25.472 25.569 L 0.173 119.769 L 0.173 119.769 L 0.173 119.769 L 0.173 119.769 L 68.372 187.869 L 69.273 188.769 L 69.372 188.968 L 69.372 188.968 L 69.372 188.968 L 69.372 188.968 L 69.372 188.968 L 69.372 188.968 L 69.372 188.968 L 163.472 163.769 L 163.673 163.769 L 163.572 163.569 L 163.572 163.569 L 163.572 163.569 Z M 60.572 178.769 L 3.872 122.069 L 39.173 134.069 L 65.273 183.369 L 60.572 178.769 Z M 41.872 135.069 L 82.572 148.968 L 69.072 186.468 L 41.872 135.069 Z M 119.872 2.669 L 147.072 53.968 L 106.372 40.069 L 119.872 2.669 Z M 132.572 142.769 L 148.072 153.169 L 132.472 142.869 L 117.472 153.769 L 117.472 153.769 L 132.472 142.869 L 132.472 142.869 L 132.572 142.769 L 132.572 142.769 L 132.572 142.769 L 159.472 107.669 L 159.472 107.669 L 132.572 142.769 Z M 159.472 109.269 L 162.372 161.769 L 133.972 142.569 L 159.472 109.269 Z M 40.472 132.468 L 32.273 116.968 L 77.673 129.169 L 82.372 146.769 L 40.472 132.468 Z M 148.372 56.569 L 156.572 72.069 L 111.173 59.869 L 106.472 42.269 L 148.372 56.569 Z M 122.872 110.669 L 131.173 141.369 L 100.472 133.169 L 122.872 110.669 Z M 98.173 132.569 L 79.273 127.468 L 66.673 80.569 L 90.773 56.468 L 109.673 61.569 L 122.273 108.468 L 98.173 132.569 Z M 66.072 78.369 L 57.773 47.669 L 88.472 55.869 L 66.072 78.369 Z M 123.872 106.968 L 111.872 62.169 L 156.673 74.169 L 123.872 106.968 Z M 92.372 54.869 L 104.572 42.669 L 109.072 59.369 L 92.372 54.869 Z M 90.072 54.269 L 58.572 45.869 L 72.773 35.569 L 102.972 41.369 L 90.072 54.269 Z M 65.072 82.169 L 77.072 126.968 L 32.273 114.968 L 65.072 82.169 Z M 96.572 134.169 L 84.372 146.369 L 79.872 129.669 L 96.572 134.169 Z M 98.773 134.769 L 130.273 143.169 L 116.072 153.468 L 85.872 147.669 L 98.773 134.769 Z M 132.872 140.669 L 124.372 109.069 L 157.572 75.869 L 159.273 106.069 L 132.872 140.669 Z M 151.173 57.468 L 184.572 68.869 L 159.173 72.468 L 151.173 57.468 Z M 56.372 46.269 L 40.872 35.869 L 56.472 46.169 L 71.472 35.269 L 71.472 35.269 L 56.472 46.169 L 56.472 46.169 L 56.372 46.269 L 56.372 46.269 L 56.372 46.269 L 29.472 81.369 L 29.472 81.369 L 56.372 46.269 Z M 29.372 79.769 L 26.472 27.269 L 54.872 46.468 L 29.372 79.769 Z M 29.673 27.169 L 70.072 34.968 L 56.472 44.869 L 29.673 27.169 Z M 56.072 48.369 L 64.572 79.968 L 31.372 113.169 L 29.673 82.968 L 56.072 48.369 Z M 37.773 131.569 L 4.372 120.169 L 29.773 116.569 L 37.773 131.569 Z M 132.472 144.169 L 159.173 161.869 L 118.773 154.069 L 132.472 144.169 Z M 164.173 157.369 L 161.372 106.769 L 186.572 73.869 L 164.173 157.369 Z M 159.572 74.468 L 186.472 70.569 L 161.173 103.669 L 159.572 74.468 Z M 185.072 66.968 L 149.773 54.968 L 123.673 5.669 L 142.773 24.769 L 185.072 66.968 Z M 104.372 39.569 L 74.872 33.968 L 117.572 2.869 L 104.372 39.569 Z M 29.773 25.269 L 114.773 2.468 L 72.273 33.369 L 29.773 25.269 Z M 24.773 31.669 L 27.572 82.269 L 2.372 115.169 L 24.773 31.669 Z M 29.273 114.569 L 2.372 118.468 L 27.673 85.369 L 29.273 114.569 Z M 84.472 149.468 L 113.972 155.069 L 71.273 186.169 L 84.472 149.468 Z M 159.173 163.769 L 74.173 186.569 L 116.673 155.669 L 159.173 163.769 Z M 187.173 71.369 L 161.273 105.269 L 161.273 105.269 L 187.173 71.369 L 187.173 71.369 Z M 117.472 1.769 L 73.673 33.669 L 73.673 33.669 L 117.472 1.769 L 117.472 1.769 Z M 1.673 117.669 L 27.572 83.769 L 27.572 83.769 L 1.673 117.669 L 1.673 117.669 Z M 71.472 187.269 L 115.273 155.369 L 115.273 155.369 L 71.472 187.269 L 71.472 187.269 Z"/>
	</symbol>
</svg>